<svg xmlns="http://www.w3.org/2000/svg" width="330" height="64" viewBox="0 0 330 64" role="img" aria-label="bilsenneoldu.com.tr">
  <rect x="2" y="4" width="56" height="56" rx="16" fill="#e30613"/>
  <svg x="15" y="14" width="30" height="30" viewBox="0 0 16 16">
    <path fill="#ffffff" d="M11.251.068a.5.5 0 0 1 .227.58L9.677 6.5H13a.5.5 0 0 1 .364.843l-8 8.5a.5.5 0 0 1-.842-.49L6.323 9.5H3a.5.5 0 0 1-.364-.843l8-8.5a.5.5 0 0 1 .615-.09z"/>
  </svg>
  <text x="72" y="38" font-family="'Segoe UI', Arial, sans-serif" font-weight="900" font-size="29" fill="#1a1a2e" letter-spacing="-0.5">bilsenneoldu</text>
  <text x="72" y="54" font-family="'Segoe UI', Arial, sans-serif" font-weight="700" font-size="13" fill="#e30613" letter-spacing="1.5">.COM.TR</text>
</svg>
